<svg width="17" height="16" viewBox="0 0 17 16" fill="none" xmlns="http://www.w3.org/2000/svg">
<path d="M7.47188 0.532863L5.51888 4.49286L1.14988 5.12986C0.973147 5.15566 0.807158 5.2304 0.670694 5.34564C0.53423 5.46087 0.432737 5.61199 0.377694 5.7819C0.322652 5.95182 0.316256 6.13374 0.359233 6.3071C0.40221 6.48046 0.492845 6.63833 0.620881 6.76286L3.78188 9.84286L3.03088 14.1939C3.00056 14.3698 3.02012 14.5507 3.08734 14.7161C3.15456 14.8816 3.26676 15.0248 3.41123 15.1298C3.5557 15.2347 3.72666 15.297 3.90475 15.3098C4.08284 15.3225 4.26094 15.2851 4.41888 15.2019L8.33088 13.1479L12.2399 15.2029C12.398 15.2867 12.5765 15.3244 12.755 15.3119C12.9335 15.2993 13.105 15.237 13.2498 15.1319C13.3947 15.0268 13.5072 14.8832 13.5746 14.7174C13.6419 14.5516 13.6614 14.3702 13.6309 14.1939L12.8789 9.84286L16.0399 6.76286C16.1679 6.63833 16.2585 6.48046 16.3015 6.3071C16.3445 6.13374 16.3381 5.95182 16.2831 5.7819C16.228 5.61199 16.1265 5.46087 15.9901 5.34564C15.8536 5.2304 15.6876 5.15566 15.5109 5.12986L11.1419 4.49286L9.18888 0.532863C9.10965 0.372869 8.98729 0.238199 8.8356 0.144045C8.6839 0.0498911 8.50892 0 8.33038 0C8.15184 0 7.97686 0.0498911 7.82517 0.144045C7.67347 0.238199 7.55111 0.372869 7.47188 0.532863Z" fill="#FDB82C"/>
</svg>
